{
    "asset" : {
        "generator" : "Khronos glTF Blender I/O v1.1.46",
        "version" : "2.0"
    },
    "scene" : 0,
    "scenes" : [
        {
            "name" : "Scene",
            "nodes" : [
                0
            ]
        }
    ],
    "nodes" : [
        {
            "mesh" : 0,
            "name" : "10602_Rubber_Duck_v1_L3"
        }
    ],
    "materials" : [
        {
            "doubleSided" : true,
            "emissiveFactor" : [
                0,
                0,
                0
            ],
            "name" : "10602_Rubber_Duck_v1_Mat",
            "pbrMetallicRoughness" : {
                "baseColorTexture" : {
                    "index" : 0,
                    "texCoord" : 0
                },
                "metallicFactor" : 0,
                "roughnessFactor" : 0.8945907354354858
            }
        }
    ],
    "meshes" : [
        {
            "name" : "10602_Rubber_Duck_v1_L3",
            "primitives" : [
                {
                    "attributes" : {
                        "POSITION" : 0,
                        "NORMAL" : 1,
                        "TEXCOORD_0" : 2
                    },
                    "indices" : 3,
                    "material" : 0
                }
            ]
        }
    ],
    "textures" : [
        {
            "source" : 0
        }
    ],
    "images" : [
        {
            "bufferView" : 4,
            "mimeType" : "image/jpeg",
            "name" : "10602_Rubber_Duck_v1_diffuse"
        }
    ],
    "accessors" : [
        {
            "bufferView" : 0,
            "componentType" : 5126,
            "count" : 7038,
            "max" : [
                2.5687999725341797,
                6.948800086975098,
                4.597400188446045
            ],
            "min" : [
                -2.5687999725341797,
                0.0013000000035390258,
                -4.781799793243408
            ],
            "type" : "VEC3"
        },
        {
            "bufferView" : 1,
            "componentType" : 5126,
            "count" : 7038,
            "type" : "VEC3"
        },
        {
            "bufferView" : 2,
            "componentType" : 5126,
            "count" : 7038,
            "type" : "VEC2"
        },
        {
            "bufferView" : 3,
            "componentType" : 5123,
            "count" : 39840,
            "type" : "SCALAR"
        }
    ],
    "bufferViews" : [
        {
            "buffer" : 0,
            "byteLength" : 84456,
            "byteOffset" : 0
        },
        {
            "buffer" : 0,
            "byteLength" : 84456,
            "byteOffset" : 84456
        },
        {
            "buffer" : 0,
            "byteLength" : 56304,
            "byteOffset" : 168912
        },
        {
            "buffer" : 0,
            "byteLength" : 79680,
            "byteOffset" : 225216
        },
        {
            "buffer" : 0,
            "byteLength" : 382706,
            "byteOffset" : 304896
        }
    ],
    "buffers" : [
        {
            "byteLength" : 687604,
            "uri" : "data:application/octet-stream;base64,"
        }
    ]
}
